# xmcd
#
# Track frame offsets:
#	150
#	18260
#	36690
#	51867
#	71127
#	96862
#	112935
#	128652
#	146020
#	160532
#	174560
#	188860
#	202617
#	217395
#
# Disc length: 3125 seconds
#
# Revision: 0
# Processed by: cddbd v1.5.2PL0 Copyright (c) Steve Scherf et al.
# Submitted via: audiograbber 1.81.02
#
DISCID=c90c330e
DTITLE=Various Artistas - Originais em 3 CD's SERTANEJO
DYEAR=2007
DGENRE=
TTITLE0=Zeze di Camargo and Luciano - E minha Vida
TTITLE1=Zeze di Camargo and Luciano - Eu Amo
TTITLE2=Leonardo - Brincadeira tem Hora
TTITLE3=Leonardo - Seresteiro das Noites
TTITLE4=Leandro and Leonardo - Eu Juro
TTITLE5=Leandro and Leonardo - Paixao de Rodeio
TTITLE6=Bruno and Marrone - Ligacao Urbana
TTITLE7=Bruno and Marrone - Inevitavel
TTITLE8=Gian and Giovani - Teimosia
TTITLE9=Gian and Giovani - Me da um Beijo
TTITLE10=Almir Sater - Chalana
TTITLE11=Almir Sater - Tocando em Frente
TTITLE12=Sergio Reis - Saudade da Minha Terra
TTITLE13=Sergio Reis - Filho Adotivo
EXTD=
EXTT0=
EXTT1=
EXTT2=
EXTT3=
EXTT4=
EXTT5=
EXTT6=
EXTT7=
EXTT8=
EXTT9=
EXTT10=
EXTT11=
EXTT12=
EXTT13=
PLAYORDER=
